<?xml version="1.0" standalone="no"?>
<!DOCTYPE svg PUBLIC "-//W3C//DTD SVG 20010904//EN"
 "http://www.w3.org/TR/2001/REC-SVG-20010904/DTD/svg10.dtd">
<svg version="1.0" xmlns="http://www.w3.org/2000/svg"
 width="1200.000000pt" height="1200.000000pt" viewBox="0 0 1200.000000 1200.000000"
 preserveAspectRatio="xMidYMid meet">
<metadata>
Created by potrace 1.14, written by Peter Selinger 2001-2017
</metadata>
<g transform="translate(0.000000,1200.000000) scale(0.100000,-0.100000)"
fill="#000000" stroke="none">
<path d="M5957 11664 c-1 -1 -85 -5 -187 -8 -102 -4 -198 -9 -215 -11 -16 -2
-61 -6 -100 -10 -38 -3 -83 -8 -100 -10 -99 -12 -141 -17 -155 -20 -8 -1 -35
-6 -60 -9 -25 -3 -56 -8 -70 -11 -14 -3 -45 -8 -70 -11 -25 -3 -48 -8 -51 -10
-4 -2 -24 -6 -45 -10 -55 -8 -282 -61 -389 -91 -659 -182 -1280 -479 -1820
-872 -87 -63 -265 -200 -275 -211 -3 -3 -32 -28 -65 -55 -32 -28 -66 -57 -75
-65 -9 -8 -39 -35 -66 -59 -178 -158 -384 -374 -616 -650 -29 -35 -208 -276
-259 -351 -356 -516 -645 -1150 -802 -1760 -37 -143 -62 -252 -72 -310 -3 -19
-8 -42 -10 -50 -2 -8 -7 -31 -10 -50 -3 -19 -7 -46 -10 -60 -3 -14 -7 -38 -9
-55 -3 -16 -7 -43 -10 -60 -3 -16 -8 -55 -11 -85 -3 -30 -8 -66 -10 -80 -7
-48 -19 -155 -20 -185 -1 -16 -6 -82 -10 -145 -15 -204 -9 -680 10 -840 1 -14
6 -61 10 -105 5 -44 9 -87 10 -95 1 -8 5 -40 9 -70 4 -30 16 -107 27 -170 11
-63 21 -124 23 -135 25 -165 179 -735 218 -808 5 -10 11 -26 13 -35 4 -22 106
-280 139 -355 14 -31 26 -59 27 -62 3 -13 183 -370 215 -425 163 -288 342
-552 540 -796 109 -135 113 -139 233 -273 120 -134 394 -396 516 -496 28 -22
57 -47 66 -55 34 -32 188 -149 318 -242 596 -425 1291 -736 2006 -897 169 -38
219 -49 265 -56 19 -3 60 -10 90 -15 30 -5 75 -12 100 -15 25 -3 56 -8 70 -10
23 -4 46 -6 170 -19 307 -32 724 -37 1005 -11 28 2 79 7 115 10 36 3 82 8 103
10 20 3 56 7 80 10 23 3 60 8 82 12 22 3 47 7 55 8 13 1 75 12 120 20 159 29
223 43 375 81 1276 317 2401 1072 3182 2134 123 167 118 159 199 285 161 250
331 568 438 820 26 61 53 124 60 140 7 17 30 77 51 135 20 58 41 114 45 125
30 71 143 463 164 565 3 14 7 36 10 50 3 14 8 36 11 50 6 26 12 57 20 100 3
14 7 36 10 50 12 65 15 78 20 120 3 25 8 52 10 60 2 8 6 35 9 60 3 25 10 83
16 130 5 47 12 105 15 130 30 279 25 876 -10 1150 -3 25 -8 63 -10 85 -3 22
-7 56 -10 75 -3 19 -7 49 -9 65 -2 17 -9 57 -15 90 -6 33 -13 76 -16 95 -3 19
-8 42 -10 50 -2 8 -7 31 -10 50 -19 113 -81 357 -137 535 -183 589 -440 1108
-810 1632 -42 59 -157 213 -168 223 -3 3 -49 58 -103 123 -301 362 -678 706
-1087 993 -95 66 -338 224 -345 224 -3 0 -24 12 -46 26 -168 105 -550 289
-814 391 -178 69 -528 180 -655 208 -8 2 -37 9 -65 15 -83 19 -87 20 -165 36
-41 9 -84 17 -96 19 -11 2 -45 8 -75 14 -30 6 -72 13 -94 16 -22 3 -50 7 -62
9 -12 3 -46 7 -75 10 -29 4 -67 8 -85 10 -17 2 -62 7 -100 11 -37 3 -81 8 -98
10 -16 2 -122 7 -235 10 -113 4 -220 8 -238 9 -18 1 -33 1 -35 0z m313 -1128
c166 -10 234 -16 340 -32 19 -2 53 -7 75 -9 22 -3 63 -10 90 -15 28 -5 97 -19
155 -30 58 -12 146 -32 195 -45 50 -13 101 -27 115 -31 49 -12 217 -66 315
-101 102 -36 123 -44 207 -82 26 -11 50 -21 53 -21 9 0 325 -157 395 -195 116
-65 406 -250 465 -297 6 -5 57 -45 115 -90 535 -415 966 -941 1271 -1548 69
-139 179 -387 179 -405 0 -4 6 -21 14 -38 34 -75 139 -414 160 -518 3 -13 14
-64 25 -114 21 -94 21 -97 45 -240 14 -81 18 -113 31 -220 13 -114 20 -285 20
-505 0 -258 -7 -379 -30 -555 -2 -16 -7 -52 -10 -80 -10 -76 -54 -312 -70
-375 -8 -30 -16 -66 -18 -80 -24 -132 -163 -536 -258 -749 -75 -166 -307 -593
-338 -621 -4 -3 -24 -32 -45 -65 -51 -79 -164 -230 -245 -330 -199 -243 -388
-431 -665 -663 -137 -115 -403 -296 -596 -407 -425 -244 -944 -437 -1395 -519
-16 -3 -39 -8 -50 -10 -11 -2 -45 -7 -75 -12 -30 -4 -57 -8 -60 -9 -7 -1 -102
-14 -165 -21 -27 -3 -61 -7 -75 -9 -168 -22 -740 -22 -860 0 -8 1 -49 6 -90
10 -41 4 -84 9 -95 11 -11 2 -40 6 -65 9 -25 3 -54 8 -66 10 -12 3 -39 7 -60
11 -69 11 -336 72 -429 99 -202 58 -445 145 -600 215 -154 70 -259 121 -284
139 -14 10 -28 18 -31 17 -12 -3 -325 189 -442 271 -103 72 -290 214 -308 233
-3 3 -39 34 -80 70 -297 256 -572 569 -797 905 -136 204 -282 468 -363 655
-18 41 -43 98 -55 126 -73 162 -205 581 -241 769 -2 11 -6 31 -9 45 -11 54
-16 79 -35 195 -11 66 -22 145 -25 175 -3 30 -7 66 -10 80 -25 157 -26 783 0
941 2 13 6 51 10 84 3 33 8 69 10 80 3 11 7 37 10 58 44 316 140 667 273 999
28 70 55 135 60 145 5 10 44 88 85 174 214 438 483 814 847 1180 257 259 457
423 760 620 422 276 939 495 1420 604 41 9 84 19 95 22 11 2 30 6 42 8 12 2
34 6 50 9 44 10 63 13 148 26 44 7 87 13 95 15 8 1 44 6 80 9 36 4 79 9 95 11
17 2 89 7 160 10 72 4 131 8 132 9 5 4 295 -2 403 -8z"/>
<path d="M4369 9332 c-12 -2 -14 -72 -12 -475 1 -259 2 -481 2 -492 1 -20 7
-20 506 -20 l505 0 14 -40 c8 -22 42 -119 76 -215 34 -96 65 -186 70 -200 4
-14 31 -90 60 -170 29 -80 56 -159 61 -176 9 -32 -18 -80 -385 -667 -21 -34
-44 -71 -50 -82 -6 -11 -40 -67 -76 -123 -36 -57 -72 -116 -81 -130 -25 -42
-114 -185 -244 -394 -289 -466 -452 -729 -497 -803 -27 -44 -63 -102 -81 -130
-17 -27 -159 -257 -315 -510 -156 -253 -295 -476 -307 -495 -13 -19 -59 -93
-103 -165 -44 -71 -148 -239 -231 -373 -83 -134 -151 -245 -151 -247 0 -2 -14
-25 -31 -50 -17 -25 -29 -49 -26 -52 3 -2 263 -6 579 -6 l573 -2 36 55 c20 30
56 87 81 125 142 223 215 338 228 360 15 25 416 656 515 810 46 72 127 199
158 249 7 11 37 59 67 106 30 47 80 125 110 173 30 48 87 137 125 197 95 149
277 435 295 465 69 113 243 385 246 385 6 0 46 -92 79 -180 16 -41 32 -79 37
-85 4 -5 8 -15 8 -22 0 -7 9 -32 19 -56 11 -23 56 -136 101 -252 45 -115 129
-329 187 -475 57 -146 134 -339 169 -430 36 -91 69 -174 74 -185 5 -11 25 -63
45 -115 63 -162 265 -674 274 -695 5 -11 70 -173 143 -360 l134 -340 30 1 c16
1 45 6 64 12 19 6 107 31 195 57 88 26 205 60 260 75 55 16 224 64 375 108
151 44 394 114 540 156 303 88 400 116 417 121 10 3 10 11 3 31 -6 14 -26 79
-44 143 -19 64 -62 208 -96 321 -33 113 -69 234 -80 270 -10 36 -29 100 -42
142 l-23 77 -180 -60 c-99 -32 -183 -59 -187 -59 -4 0 -19 -5 -35 -12 -15 -6
-32 -12 -38 -14 -20 -5 -381 -123 -407 -133 l-26 -10 -97 247 c-53 136 -103
261 -110 277 -7 17 -61 154 -120 305 -59 151 -113 289 -120 305 -7 17 -31 77
-53 135 -23 58 -84 213 -136 345 -167 426 -207 528 -253 645 -25 63 -82 210
-128 326 -116 294 -527 1339 -829 2109 -76 193 -142 354 -146 359 -8 8 -1681
16 -1721 8z"/>
</g>
</svg>
